<svg xmlns="http://www.w3.org/2000/svg" width="292" height="246" viewBox="0 0 292 246"><defs><style>.a{fill:none;}.b,.c{fill:#e0e0e0;}.c{fill-rule:evenodd;}.d,.g{fill:#fff;}.e{fill:#f6761d;}.f{fill:#0b101c;font-size:8px;font-family:Montserrat-Regular, Montserrat;}.g{stroke:#fff;stroke-width:0.5px;}.h{fill:#263238;}.i{fill:#455a64;}.j{fill:#ffbe9d;}.k{opacity:0.2;}.l{fill:#fafafa;}.m{fill:#0b1124;}.n{fill:#271515;}.o{fill:#eb996e;}.p{fill:#100606;}.q{fill:#1d0c0c;}.r{fill:#433d3d;}.s{fill:#53d654;}.t{fill:#3ebc3f;}</style></defs><g transform="translate(-14.802 -54.285)"><g transform="translate(48.072 67.786)"><g transform="translate(148.268)"><g transform="translate(22.432 74.835)"><g transform="translate(0.261 0.268)"><path class="a" d="M380.225,236.014a19.435,19.435,0,0,1-4.377,2.754l-.255,4.785-7.82,1.337-1.834-4.427a19.458,19.458,0,0,1-5.045-1.142l-3.565,3.2-6.476-4.58,1.836-4.425a19.365,19.365,0,0,1-2.756-4.374l-4.789-.254-1.338-7.814,4.431-1.832a19.426,19.426,0,0,1,1.143-5.041l-3.2-3.562,4.583-6.473L355.188,206a19.379,19.379,0,0,1,4.377-2.754l.255-4.786,7.82-1.337,1.833,4.428a19.517,19.517,0,0,1,5.045,1.142l3.564-3.2,6.477,4.58-1.836,4.424a19.4,19.4,0,0,1,2.755,4.375l4.789.255,1.339,7.813-4.432,1.832a19.429,19.429,0,0,1-1.143,5.041l3.2,3.562-4.582,6.472-4.428-1.834Zm-5.78-9.8a8.509,8.509,0,1,0-11.864,2.03A8.5,8.5,0,0,0,374.445,226.215Z" transform="translate(-343.807 -197.125)"/></g><g transform="translate(15.209 15.716)"><path class="b" d="M383.578,235.67a6.423,6.423,0,0,1-1.356,1.613,8.473,8.473,0,0,1-5.29,2.137,8.585,8.585,0,0,1-3.933-.754,8.709,8.709,0,0,1-3.537-2.935,8.709,8.709,0,0,1-1.571-4.823,8.677,8.677,0,0,1,5.975-8.438,8.727,8.727,0,0,1,5.075-.124,8.71,8.71,0,0,1,3.947,2.357,8.573,8.573,0,0,1,2.019,3.456,8.457,8.457,0,0,1-.258,5.7,6.411,6.411,0,0,1-1.071,1.814c-.052-.032.423-.63.894-1.883a8.472,8.472,0,0,0,.1-5.524,8.31,8.31,0,0,0-5.755-5.483,8.314,8.314,0,0,0-4.806.145,8.24,8.24,0,0,0-5.648,7.975,8.314,8.314,0,0,0,1.462,4.576,8.318,8.318,0,0,0,7.089,3.6,8.487,8.487,0,0,0,5.178-1.937C383.125,236.278,383.531,235.632,383.578,235.67Z" transform="translate(-367.887 -222.028)"/></g><path class="b" d="M380.066,235.85a1.832,1.832,0,0,1,.282.1l.845.33,3.33,1.334-.093.027,4.545-6.5.009.154-3.219-3.549-.058-.064.03-.082a19.386,19.386,0,0,0,1.117-5.006l.009-.1.09-.038,4.426-1.845-.1.19c-.427-2.459-.881-5.07-1.357-7.81l.179.159-4.789-.246-.122-.006-.052-.111a19.265,19.265,0,0,0-2.734-4.324l-.081-.1.048-.118c.567-1.372,1.192-2.886,1.83-4.426l.075.261-6.482-4.572.283-.017-3.561,3.205-.1.094-.132-.049a19.345,19.345,0,0,0-4.984-1.124l-.143-.013-.055-.132-1.836-4.427.261.144-7.82,1.341.2-.226c-.081,1.512-.167,3.143-.254,4.786l-.007.148-.135.061a19.244,19.244,0,0,0-4.318,2.716h0l-.251.038,0,0-.009,0-.017-.007-.035-.015-.07-.029-.14-.058-.278-.115-.557-.231-1.111-.46-2.207-.915.292-.084-4.585,6.472-.017-.3,3.2,3.564.1.108-.051.136a19.215,19.215,0,0,0-1.133,4.979l-.012.143-.133.055-4.432,1.829.14-.254,1.331,7.815L345,228.5l4.788.261.132.007.055.12a19.217,19.217,0,0,0,2.718,4.33l.082.1-.049.118-1.843,4.421-.07-.243,6.466,4.593-.233.014,3.572-3.193.079-.071.1.037a19.358,19.358,0,0,0,5,1.146l.1.009.037.089c.661,1.611,1.256,3.062,1.818,4.433l-.157-.087,7.826-1.3-.091.1c.114-1.911.208-3.478.286-4.783l0-.048.043-.019a20.13,20.13,0,0,0,3.374-1.927l.776-.569a1.9,1.9,0,0,1,.259-.185,2.551,2.551,0,0,1-.234.218c-.163.137-.409.344-.754.6a18.8,18.8,0,0,1-3.356,2l.046-.067c-.061,1.306-.135,2.874-.224,4.786l0,.087-.087.015-7.814,1.372-.113.02-.045-.107-1.849-4.421.134.1a19.6,19.6,0,0,1-5.092-1.138l.179-.033L357.3,242.5l-.111.1-.122-.086-6.485-4.567-.133-.093.062-.15,1.828-4.428.033.217a19.656,19.656,0,0,1-2.792-4.419l.187.128-4.789-.249-.179-.009-.03-.177q-.656-3.809-1.346-7.811l-.032-.183.172-.071,4.43-1.836-.145.2a19.623,19.623,0,0,1,1.155-5.1l.046.243-3.206-3.561-.13-.143.112-.158,4.581-6.473.113-.159.18.075,2.207.914,1.111.46.557.231.279.115.14.058.07.029.035.014.017.007.009,0,0,0-.249.038h0a19.684,19.684,0,0,1,4.429-2.785l-.142.208c.088-1.643.175-3.275.256-4.786l.01-.194.191-.032,7.821-1.334.189-.032.073.177,1.831,4.43-.2-.145a19.811,19.811,0,0,1,5.1,1.16l-.236.045,3.567-3.2.136-.122.148.1,6.471,4.588.142.1-.066.161-1.843,4.421-.033-.215a19.647,19.647,0,0,1,2.778,4.426l-.173-.118,4.788.264.154.009.025.151,1.321,7.817.023.137-.128.053-4.436,1.82.1-.133a19.59,19.59,0,0,1-1.169,5.077l-.027-.146,3.19,3.575.066.074-.058.08-4.62,6.444-.037.051-.057-.024-3.269-1.4-.842-.37A2.427,2.427,0,0,1,380.066,235.85Z" transform="translate(-343.386 -196.693)"/></g><path class="c" d="M358.743,131.036a27.532,27.532,0,0,1-6.188,3.894l-.361,6.765-11.057,1.891-2.592-6.26a27.5,27.5,0,0,1-7.133-1.615l-5.041,4.528-9.155-6.476,2.595-6.256a27.445,27.445,0,0,1-3.9-6.185l-6.771-.36-1.893-11.048,6.265-2.592a27.451,27.451,0,0,1,1.617-7.127L310.6,95.159l6.48-9.152,6.261,2.595a27.432,27.432,0,0,1,6.189-3.893l.361-6.767,11.057-1.891,2.592,6.262a27.552,27.552,0,0,1,7.132,1.615l5.04-4.527,9.157,6.475-2.6,6.256a27.378,27.378,0,0,1,3.9,6.185l6.772.36,1.893,11.048-6.266,2.591a27.459,27.459,0,0,1-1.616,7.128l4.531,5.036L365,133.629l-6.261-2.593Zm-8.172-13.855a12.031,12.031,0,1,0-16.774,2.87A12.019,12.019,0,0,0,350.571,117.181Z" transform="translate(-307.25 -76.051)"/></g><g transform="translate(0 1.763)"><g transform="translate(9.934 37.162)"><path class="c" d="M135.365,152.828a26.021,26.021,0,0,1,4.009,5.626l6.408-.024,2.381,10.324-5.772,2.782a25.941,25.941,0,0,1-1.14,6.813l4.547,4.509-5.622,8.983-6.047-2.11a25.931,25.931,0,0,1-5.631,4.007l.024,6.4-10.33,2.38-2.785-5.768a26,26,0,0,1-6.818-1.141l-4.512,4.544-8.99-5.617,2.112-6.044a25.928,25.928,0,0,1-4.009-5.626l-6.409.024L84.4,172.568l5.773-2.781a26.018,26.018,0,0,1,1.14-6.813l-4.546-4.508,5.621-8.983,6.047,2.111a25.894,25.894,0,0,1,5.631-4.007l-.025-6.4,10.331-2.379,2.784,5.768a26,26,0,0,1,6.818,1.141l4.511-4.544,8.99,5.617-2.111,6.044Zm-12.644,8.452a11.368,11.368,0,1,0,3.613,15.662A11.378,11.378,0,0,0,122.721,161.28Z" transform="translate(-84.401 -138.802)"/></g><g transform="translate(38.924)"><path class="c" d="M159.319,86.659a14.405,14.405,0,0,1,2.22,3.114l3.548-.013,1.318,5.715-3.2,1.54a14.377,14.377,0,0,1-.631,3.772l2.517,2.5-3.112,4.974-3.348-1.169a14.343,14.343,0,0,1-3.117,2.218l.014,3.546-5.719,1.318-1.542-3.193a14.382,14.382,0,0,1-3.774-.631l-2.5,2.516-4.978-3.11,1.17-3.346a14.351,14.351,0,0,1-2.22-3.115l-3.548.013L131.1,97.587l3.2-1.54a14.377,14.377,0,0,1,.631-3.771l-2.517-2.5,3.112-4.974,3.348,1.169a14.377,14.377,0,0,1,3.117-2.219l-.013-3.546,5.719-1.318,1.541,3.194a14.386,14.386,0,0,1,3.775.631l2.5-2.515,4.977,3.11-1.168,3.347Zm-7,4.679a6.294,6.294,0,1,0,2,8.672A6.3,6.3,0,0,0,152.319,91.338Z" transform="translate(-131.103 -78.893)"/></g><g transform="translate(0 8.115)"><g transform="translate(0.183 0.132)"><path class="a" d="M91.555,98.48a11.675,11.675,0,0,1,1.8,2.523l2.875-.011,1.068,4.632-2.589,1.247a11.643,11.643,0,0,1-.511,3.056l2.04,2.023-2.522,4.03L91,115.034a11.648,11.648,0,0,1-2.526,1.8l.011,2.873-4.634,1.068L82.6,118.184a11.671,11.671,0,0,1-3.058-.512l-2.024,2.038-4.033-2.52.948-2.711a11.636,11.636,0,0,1-1.8-2.523l-2.875.011-1.068-4.631,2.59-1.248a11.677,11.677,0,0,1,.512-3.056l-2.04-2.022,2.522-4.03,2.713.947a11.626,11.626,0,0,1,2.526-1.8L77.5,93.256l4.635-1.068,1.249,2.588a11.676,11.676,0,0,1,3.058.512l2.024-2.038,4.032,2.52-.947,2.711Zm-5.672,3.791A5.1,5.1,0,1,0,87.5,109.3,5.1,5.1,0,0,0,85.884,102.272Z" transform="translate(-68.693 -92.188)"/></g><g transform="translate(9.416 9.352)"><path class="b" d="M91.524,107.915a1.236,1.236,0,0,1,.286.16,4.056,4.056,0,0,1,.731.592,5.072,5.072,0,0,1,1.467,3.093,5.135,5.135,0,0,1-.316,2.384,5.226,5.226,0,0,1-1.64,2.223,5.251,5.251,0,0,1-2.842,1.108,5.22,5.22,0,0,1-5.273-3.3,5.237,5.237,0,0,1-.248-3.039,5.227,5.227,0,0,1,1.282-2.446,5.153,5.153,0,0,1,2.006-1.327,5.082,5.082,0,0,1,3.426-.036,4.015,4.015,0,0,1,.852.4,1.252,1.252,0,0,1,.269.187c-.019.033-.394-.228-1.16-.465a5.087,5.087,0,0,0-3.307.13A4.974,4.974,0,0,0,83.98,111.2a4.974,4.974,0,0,0,.251,2.861,4.931,4.931,0,0,0,4.955,3.1,4.982,4.982,0,0,0,2.684-1.027,4.973,4.973,0,0,0,1.912-4.351,5.08,5.08,0,0,0-1.33-3.028C91.9,108.169,91.5,107.946,91.524,107.915Z" transform="translate(-83.567 -107.052)"/></g><path class="b" d="M91.443,98.4a1,1,0,0,1,.048-.172l.167-.517q.239-.714.683-2.039l.021.061-4.049-2.494.1-.012L86.4,95.273l-.04.041-.055-.017a11.637,11.637,0,0,0-3.034-.5l-.064,0-.028-.058c-.392-.805-.816-1.677-1.257-2.584l.129.062L77.421,93.3l.1-.124c.006.889.011,1.868.017,2.873v.081l-.072.038a11.571,11.571,0,0,0-2.493,1.782L74.912,98l-.08-.028-2.715-.943.17-.06-2.517,4.033-.022-.186,2.042,2.02.066.065-.027.089a11.593,11.593,0,0,0-.5,3.016l0,.095-.086.041L68.649,107.4l.086-.178c.339,1.466.7,3.038,1.071,4.631l-.158-.125,2.875-.011h.1l.045.086a11.513,11.513,0,0,0,1.772,2.487h0c.016.073-.034-.163.035.164v0l0,.006,0,.011-.007.022-.015.042-.03.086-.06.171-.119.341-.238.68-.473,1.351-.066-.19,4.032,2.521-.2.023,2.025-2.037.068-.068.092.028a11.492,11.492,0,0,0,3.017.507l.095,0,.041.085,1.246,2.589-.173-.083,4.635-1.063-.115.146q0-1.463-.007-2.873v-.088l.078-.041a11.5,11.5,0,0,0,2.5-1.771l.063-.058.079.029,2.711.952-.158.055,2.531-4.023.017.153L94,109.93l-.05-.05.02-.067a11.6,11.6,0,0,0,.516-3.025l0-.065.058-.028,2.594-1.238-.052.107c-.4-1.8-.75-3.325-1.046-4.636l.071.056-2.874-.009H93.21l-.014-.028a12.061,12.061,0,0,0-1.267-1.953l-.366-.445a1.067,1.067,0,0,1-.119-.149,1.387,1.387,0,0,1,.139.131c.088.092.221.232.388.429a11.272,11.272,0,0,1,1.317,1.938l-.046-.028,2.875-.031h.057l.014.056c.309,1.308.669,2.835,1.091,4.626l.017.074-.069.033-2.585,1.257.06-.092a11.752,11.752,0,0,1-.507,3.087l-.029-.116,2.045,2.017.07.069-.052.084-2.513,4.035-.056.091-.1-.035-2.715-.942.142-.03a11.8,11.8,0,0,1-2.553,1.823l.077-.128q.007,1.411.015,2.873v.118l-.116.027-4.633,1.072-.12.028-.054-.111-1.251-2.586.136.088a11.814,11.814,0,0,1-3.1-.517l.16-.04-2.023,2.04-.09.091-.108-.068-4.034-2.519-.109-.068.042-.122q.236-.673.472-1.352l.238-.68.119-.341.06-.171.03-.085.015-.043.007-.022,0-.011,0,0v0c.069.327.019.091.034.163h0a11.821,11.821,0,0,1-1.822-2.557l.143.086-2.875.011h-.128l-.029-.125c-.367-1.594-.728-3.165-1.066-4.632l-.029-.123.114-.055,2.59-1.246-.088.136a11.853,11.853,0,0,1,.521-3.1l.038.154-2.037-2.025-.086-.085.064-.1,2.527-4.026.061-.1.109.038,2.711.952-.142.03a11.8,11.8,0,0,1,2.559-1.814l-.071.118c0-1,0-1.984,0-2.873v-.1l.1-.023L82,92l.09-.02.04.083,1.241,2.592-.092-.06a11.768,11.768,0,0,1,3.083.527l-.1.024L88.3,93.111l.047-.047.055.035,4.016,2.546.035.022-.014.038-.728,2c-.081.218-.145.388-.194.516A1.352,1.352,0,0,1,91.443,98.4Z" transform="translate(-68.398 -91.975)"/></g></g></g><g transform="translate(112.375 54.285)"><path d="M272.344,297.187l-82.475-.381a17.958,17.958,0,0,1-17.882-18.028l.873-206.616a17.96,17.96,0,0,1,18.048-17.877l82.475.381a17.96,17.96,0,0,1,17.883,18.028l-.874,206.617A17.96,17.96,0,0,1,272.344,297.187Z" transform="translate(-171.987 -54.285)"/><g transform="translate(4.427 4.134)"><g transform="translate(0 0)"><path class="d" d="M277.612,63.163l-8.99-.074a3.97,3.97,0,0,0-3.9,4.038l-.013-.1a3.97,3.97,0,0,1-3.9,4.038l-47.169-.144a3.974,3.974,0,0,1-3.865-4.074l.012.1a3.974,3.974,0,0,0-3.866-4.074l-5.624-.027-7-.064a12.577,12.577,0,0,0-12.64,12.52l-.853,208.667A12.578,12.578,0,0,0,192.333,296.6l84.31.379a12.578,12.578,0,0,0,12.64-12.52l.854-208.668A12.578,12.578,0,0,0,277.612,63.163Z" transform="translate(-179.809 -62.783)"/></g></g><g transform="translate(38.427 61.637)"><rect class="e" width="44.426" height="44.394" rx="10" transform="translate(0 0)"/></g><g transform="translate(23.659 77.473)"><path class="e" d="M213.566,179.181l1.071,2.169,2.4.348-1.733,1.688.409,2.384-2.142-1.125-2.142,1.125.409-2.384L210.1,181.7l2.4-.348Z" transform="translate(-210.1 -179.181)"/></g><g transform="translate(93.657 55.979)"><path class="e" d="M325.543,144.529l.828,1.677,1.852.269-1.34,1.305.316,1.843-1.657-.87-1.657.87.316-1.843-1.34-1.305,1.852-.269Z" transform="translate(-322.863 -144.529)"/></g><g transform="translate(93.225 96.207)"><path class="e" d="M323.651,209.382l.718.973,1.209-.04-.7.983.411,1.137-1.154-.365-.955.742-.009-1.209-1-.678,1.148-.382Z" transform="translate(-322.166 -209.382)"/></g><g transform="translate(25.169 60.813)"><path class="e" d="M213.666,154.588a1.132,1.132,0,1,1,1.133-1.133A1.134,1.134,0,0,1,213.666,154.588Zm0-1.644a.512.512,0,1,0,.512.512A.512.512,0,0,0,213.666,152.943Z" transform="translate(-212.533 -152.323)"/></g><g transform="translate(89.218 76.462)"><path class="e" d="M316.846,179.816a1.132,1.132,0,1,1,1.133-1.133A1.134,1.134,0,0,1,316.846,179.816Zm0-1.644a.512.512,0,1,0,.512.512A.513.513,0,0,0,316.846,178.171Z" transform="translate(-315.712 -177.551)"/></g><g transform="translate(74.433 52.569)"><path class="e" d="M293.028,141.3a1.132,1.132,0,1,1,1.133-1.132A1.134,1.134,0,0,1,293.028,141.3Zm0-1.644a.512.512,0,1,0,.512.512A.512.512,0,0,0,293.028,139.652Z" transform="translate(-291.895 -139.032)"/></g><g transform="translate(19.316 97.923)"><ellipse class="e" cx="0.823" cy="0.822" rx="0.823" ry="0.822"/></g><g transform="translate(57.253 109.655)"><path class="e" d="M265.864,231.884a.823.823,0,1,1-.823-.822A.823.823,0,0,1,265.864,231.884Z" transform="translate(-264.218 -231.062)"/></g><g transform="translate(49.275 44.537)"><ellipse class="e" cx="0.823" cy="0.822" rx="0.823" ry="0.822"/></g><g transform="translate(30.427 166.56)"><text class="f" transform="translate(26 8)"><tspan x="-26" y="0">DOWNLOAD</tspan></text></g><g transform="translate(47.715 72.429)"><g transform="translate(0 0)"><path class="g" d="M190.545,1l9.524,9a.52.52,0,0,1-.11.586.572.572,0,0,1-.627.147L190.3,1.71l-8.68,8.5v-.7L190.208.78S190.2.757,190.545,1Z" transform="translate(-174.691 -0.419)"/><path class="g" d="M189.431.109l-9.548,9.474a.514.514,0,0,0,.111.586.585.585,0,0,0,.635.147l9.144-9.026,9.035,8.8-.072-.7L190.045.109A.482.482,0,0,0,189.431.109Z" transform="translate(-173.969 0)"/><path class="g" d="M7.056.158.048,7.021a.508.508,0,0,0,.11.584A.589.589,0,0,0,.8,7.748L8.7.028A4.071,4.071,0,0,0,7.056.158Z" transform="translate(4.481 11.472) rotate(-45)"/><path class="g" d="M627.435,93.557l-.919,1.847,1,2a2.724,2.724,0,0,1-1.205.282,15.677,15.677,0,0,1-3.139,0c-1.071-.2-1.5-.529-2.129-1.921l-.892,2.225,1.251,2.392s-2.338,2.738-14.156,6.685c1.81-.2,2.82-.355,2.82-.355a23.338,23.338,0,0,0,7.314-2.276c4.426-2.064,4.776-3.347,4.776-3.347a1.491,1.491,0,0,0-.043-1.833,25.315,25.315,0,0,0,3.855.106,3.006,3.006,0,0,0,2.449-2.932A4.31,4.31,0,0,0,627.435,93.557Z" transform="translate(-607.248 -85.412)"/><path class="g" d="M939.649,229.814l1.651,1.3-.785,1.309-1.406-1.066-.607.976-1.665-1.288.8-1.288,1.392,1.129Z" transform="translate(-920.343 -214.582)"/><path class="g" d="M970.457,280.73l1.524,1.182-.678,1.214-1.547-1.228Z" transform="translate(-951.577 -262.931)"/></g></g><g transform="translate(23.167 113.002)"><g transform="translate(21.922 7.015)"><rect class="h" width="45.363" height="32.792"/></g><g transform="translate(7.02 7.015)"><rect class="i" width="39.545" height="32.792"/></g><path class="i" d="M216.327,243.472l-7.02-7.015H227.1l6.608,7.015Z" transform="translate(-209.307 -236.457)"/><g transform="translate(46.565)"><path class="i" d="M284.321,243.472l8.076-7.015h22.156l-9.512,7.015Z" transform="translate(-284.321 -236.457)"/></g><g transform="translate(7.02 6.853)"><path class="h" d="M260.161,247.667c0,.089-8.853.161-19.772.161s-19.773-.072-19.773-.161,8.851-.162,19.773-.162S260.161,247.578,260.161,247.667Z" transform="translate(-220.616 -247.505)"/></g></g></g><g transform="translate(14.802 296.844)"><g transform="translate(0 0)"><path class="h" d="M306.8,445.48c0,.089-65.372.161-145.993.161-80.649,0-146.007-.073-146.007-.161s65.358-.162,146.007-.162C241.43,445.318,306.8,445.391,306.8,445.48Z" transform="translate(-14.802 -445.318)"/></g></g><g transform="translate(19.641 171.655)"><g transform="translate(0 0)"><g transform="translate(109.107 118.27)"><path class="j" d="M198.363,434.164l1.783,6.824,19.983-.183s-2.732-2.064-12.773-1.914l-.974-4.727Z" transform="translate(-198.363 -434.164)"/></g><g transform="translate(26.303 37.878)"><path class="e" d="M125.989,307.872,111,309.285l-6.089,1.723a16.51,16.51,0,0,0-6.935,3.971L78.355,333.8l-3.582-29.237-9.8.852,1.636,37.633a11.217,11.217,0,0,0,10.686,7.8,11.586,11.586,0,0,0,7.893-3.247L99.156,334.48,97.768,351.8l-4.8,10.764,34.3,19.355s4.028-19.926,6.191-33.71c1.749-11.152,2.639-35.44,2.639-35.44Z" transform="translate(-64.97 -304.562)"/><g transform="translate(67.831 7.859)"><path class="e" d="M176.64,317.231s7.584,2.809,9.417,8.744c1.626,5.263,7.052,34.86,7.052,34.86l5.383,31.325-11.272.429L174.242,339.2Z" transform="translate(-174.242 -317.231)"/></g><g transform="translate(32.503 19.711)"><path class="h" d="M117.341,363.095c-.089-.009.413-6.005,1.122-13.392s1.355-13.372,1.444-13.363-.413,6-1.122,13.394S117.43,363.1,117.341,363.095Z" transform="translate(-117.331 -336.339)"/></g><g transform="translate(34.67 31.743)"><path class="h" d="M143.627,355.736a1.125,1.125,0,0,1-.1.292l-.343.816a12.133,12.133,0,0,1-.6,1.264c-.258.481-.526,1.046-.9,1.623l-.568.92c-.2.318-.439.628-.67.961-.452.674-1.012,1.334-1.587,2.042a30.608,30.608,0,0,1-9.234,7.329c-.82.4-1.591.794-2.35,1.082-.376.15-.733.312-1.088.434l-1.025.344c-.647.236-1.258.368-1.786.512a12.458,12.458,0,0,1-1.369.3l-.873.149a1.145,1.145,0,0,1-.307.03,1.114,1.114,0,0,1,.3-.094l.858-.208c.374-.081.83-.189,1.348-.353s1.122-.305,1.76-.553l1.01-.361c.35-.128.7-.295,1.073-.448.747-.3,1.507-.7,2.315-1.1a31.71,31.71,0,0,0,9.147-7.26c.575-.7,1.138-1.344,1.595-2,.234-.326.476-.63.68-.942l.58-.9c.387-.565.666-1.117.938-1.587s.485-.887.649-1.233l.4-.788A1.1,1.1,0,0,1,143.627,355.736Z" transform="translate(-120.821 -355.736)"/></g><g class="k" transform="translate(35.041 35.674)"><path d="M122.871,375.9a2.3,2.3,0,0,1-1.381-2.755,3.958,3.958,0,0,1,2.233-2.432,16.412,16.412,0,0,1,3.265-.966A27.4,27.4,0,0,0,139.74,362.6c.324-.323.786-.68,1.188-.461.539.295.2,1.118-.2,1.585a41.174,41.174,0,0,1-18.207,12.206" transform="translate(-121.419 -362.072)"/></g><g transform="translate(66.963 25.727)"><path class="h" d="M176.616,362.764a2.7,2.7,0,0,1-.229-.637c-.127-.415-.3-1.02-.5-1.769-.4-1.5-.926-3.58-1.446-5.891s-.94-4.416-1.217-5.944c-.138-.764-.243-1.383-.305-1.813a2.755,2.755,0,0,1-.066-.673,2.716,2.716,0,0,1,.19.65q.167.738.406,1.792c.351,1.591.806,3.646,1.308,5.918l1.353,5.906q.236,1.053.4,1.793A2.74,2.74,0,0,1,176.616,362.764Z" transform="translate(-172.844 -346.037)"/></g><g transform="translate(1.404 0.682)"><path class="h" d="M67.561,308.642a7,7,0,0,1-.251-2.981,7,7,0,0,1,.251,2.981Z" transform="translate(-67.231 -305.661)"/></g><g transform="translate(4.341 0.592)"><path class="h" d="M72.224,308.678a7.829,7.829,0,0,1-.161-3.161,7.831,7.831,0,0,1,.161,3.161Z" transform="translate(-71.963 -305.517)"/></g><g transform="translate(7.166 0.05)"><path class="h" d="M76.8,308.163a9.675,9.675,0,0,1-.2-3.52,9.712,9.712,0,0,1,.2,3.52Z" transform="translate(-76.514 -304.643)"/></g><g transform="translate(12.921 28.58)"><path class="h" d="M85.83,355.784a20.8,20.8,0,0,1,.531-5.148,20.8,20.8,0,0,1-.531,5.148Z" transform="translate(-85.785 -350.636)"/></g><g transform="translate(82.621 79.953)"><path class="h" d="M198.11,433.456a8.207,8.207,0,0,1,.552,3.2,8.2,8.2,0,0,1-.552-3.2Z" transform="translate(-198.067 -433.456)"/></g><g transform="translate(86.322 79.951)"><path class="h" d="M204.078,433.452a6.762,6.762,0,0,1,.483,2.9,6.763,6.763,0,0,1-.483-2.9Z" transform="translate(-204.03 -433.452)"/></g><g transform="translate(89.821 79.594)"><path class="h" d="M209.732,432.877a14.013,14.013,0,0,1,.548,3.25,6.13,6.13,0,0,1-.548-3.25Z" transform="translate(-209.667 -432.877)"/></g><g transform="translate(66.768 11.439)"><path class="h" d="M182.077,323.071c0,.06-.787.012-2.009.268a9.359,9.359,0,0,0-6.985,6.092c-.418,1.175-.478,1.961-.537,1.953a1.616,1.616,0,0,1,.01-.552,7.748,7.748,0,0,1,.31-1.473,9.005,9.005,0,0,1,7.16-6.245,7.738,7.738,0,0,1,1.5-.108A1.639,1.639,0,0,1,182.077,323.071Z" transform="translate(-172.53 -323.002)"/></g><g transform="translate(67.743 24.235)"><path class="l" d="M187.308,343.637a11.731,11.731,0,0,1-1.87.792c-1.173.444-2.808,1.016-4.634,1.587s-3.5,1.028-4.714,1.331a11.731,11.731,0,0,1-1.989.412,13.593,13.593,0,0,1,1.928-.632l4.679-1.419,4.654-1.493A13.7,13.7,0,0,1,187.308,343.637Z" transform="translate(-174.101 -343.632)"/></g><g transform="translate(72.303 45.823)"><path class="l" d="M194.874,378.443a12.5,12.5,0,0,1-1.944.527c-1.209.285-2.883.656-4.736,1.047s-3.535.727-4.756.955a12.472,12.472,0,0,1-1.991.3,12.372,12.372,0,0,1,1.941-.526c1.209-.285,2.885-.657,4.739-1.048s3.538-.728,4.759-.955A12.325,12.325,0,0,1,194.874,378.443Z" transform="translate(-181.447 -378.434)"/></g><g transform="translate(78.469 72.714)"><path class="l" d="M204.061,421.931a12.04,12.04,0,0,1-1.862.1c-1.149.029-2.735.078-4.484.178s-3.33.234-4.475.337a12.1,12.1,0,0,1-1.861.118,9.569,9.569,0,0,1,1.835-.346c1.141-.161,2.726-.331,4.482-.432s3.35-.113,4.5-.084A9.624,9.624,0,0,1,204.061,421.931Z" transform="translate(-191.379 -421.785)"/></g><g transform="translate(32.783 43.356)"><path class="l" d="M126.4,378.551A6.365,6.365,0,0,1,125.11,378l-3.039-1.454-3.049-1.435a6.36,6.36,0,0,1-1.24-.652,5.777,5.777,0,0,1,1.332.442c.8.316,1.9.787,3.1,1.353s2.251,1.119,3.005,1.542A5.775,5.775,0,0,1,126.4,378.551Z" transform="translate(-117.782 -374.456)"/></g><g transform="translate(47.931 44.309)"><path class="l" d="M160.636,383.37a3.675,3.675,0,0,1-.732-.279l-1.954-.85c-1.647-.72-3.929-1.7-6.476-2.716s-4.875-1.881-6.566-2.495l-2-.731a3.647,3.647,0,0,1-.723-.3,3.651,3.651,0,0,1,.762.184c.485.138,1.181.354,2.037.634,1.711.559,4.058,1.391,6.611,2.41s4.825,2.035,6.45,2.809c.813.387,1.466.71,1.912.944A3.584,3.584,0,0,1,160.636,383.37Z" transform="translate(-142.185 -375.993)"/></g><g transform="translate(34.286 29.049)"><path class="l" d="M154.245,356.4a1.41,1.41,0,0,1-.349-.03l-.992-.148-3.64-.589c-3.073-.5-7.319-1.18-12.018-1.872s-8.964-1.262-12.051-1.667l-3.656-.483-.993-.143a.176.176,0,1,1,.007-.065l1,.083c.867.078,2.12.208,3.669.381,3.1.346,7.366.883,12.069,1.574s8.946,1.407,12.01,1.966c1.533.279,2.77.515,3.624.69l.981.208A1.455,1.455,0,0,1,154.245,356.4Z" transform="translate(-120.203 -351.392)"/></g><g transform="translate(36.967 10.966)"><path class="l" d="M154.478,326.718c-.014.089-6.731-.841-15-2.076s-14.968-2.308-14.955-2.4,6.729.842,15,2.077S154.491,326.63,154.478,326.718Z" transform="translate(-124.522 -322.24)"/></g><g transform="translate(25.493 17.862)"><path class="l" d="M112.283,347.221a16.327,16.327,0,0,1-.954-2.015l-2.182-4.909-2.229-4.889a16.312,16.312,0,0,1-.877-2.049,2.179,2.179,0,0,1,.321.507c.188.337.448.829.761,1.443.626,1.226,1.455,2.94,2.319,4.856s1.595,3.672,2.1,4.954c.252.641.448,1.162.575,1.526A2.187,2.187,0,0,1,112.283,347.221Z" transform="translate(-106.038 -333.357)"/></g><g transform="translate(14.853 28.003)"><path class="l" d="M92.41,366.505c-.088.018-.943-3.728-1.911-8.366s-1.682-8.415-1.594-8.433.943,3.727,1.911,8.367S92.5,366.486,92.41,366.505Z" transform="translate(-88.897 -349.706)"/></g><g transform="translate(1.135 24.439)"><path class="l" d="M78.5,343.971a55.682,55.682,0,0,1-5.818,1.411,55.446,55.446,0,0,1-5.887,1.095,55.433,55.433,0,0,1,5.819-1.411A55.387,55.387,0,0,1,78.5,343.971Z" transform="translate(-66.798 -343.961)"/></g><g transform="translate(0.299 7.47)"><path class="l" d="M76.046,316.621a7.238,7.238,0,0,1-1.53.335c-.952.163-2.274.353-3.738.52s-2.8.276-3.76.332a7.185,7.185,0,0,1-1.566.016A7.883,7.883,0,0,1,67,317.58l3.744-.426,3.743-.424A7.811,7.811,0,0,1,76.046,316.621Z" transform="translate(-65.452 -316.604)"/></g></g><g transform="translate(27.333 15.898)"><g transform="translate(4.502)"><path class="i" d="M84.289,269.128c.178.35,4.838,24.295,4.838,24.295l-10.99.513-4.256-20.591Z" transform="translate(-73.881 -269.128)"/><g transform="translate(10.257 0.061)"><path class="h" d="M95.394,293.46l1.259-.532-4.756-23.6-1.492-.1Z" transform="translate(-90.405 -269.227)"/></g><g transform="translate(4.855 4.734)"><path class="h" d="M82.837,277.26a.569.569,0,1,1-.635-.5A.569.569,0,0,1,82.837,277.26Z" transform="translate(-81.702 -276.76)"/></g></g><g transform="translate(0 10.367)"><path class="j" d="M74.851,297.516l-.163-3.136,4.695-1.932L77.553,288.1a3.79,3.79,0,0,0-5.274-1.8L70.4,287.322a5.382,5.382,0,0,0-2.672,3.471,69.127,69.127,0,0,0-1.091,7.658" transform="translate(-66.628 -285.841)"/></g></g><g transform="translate(2.169 116.733)"><g transform="translate(0 1.032)"><path class="i" d="M46.91,433.35s-19.315,5.342-20.091,5.614c-1.163.409-.968,4.67.843,4.6.857-.032,14.836.52,16.6.409s7.1-2.208,7.1-2.208Z" transform="translate(-26.091 -433.35)"/></g><g transform="translate(10.552 4.54)"><path class="h" d="M45.31,442.862a18.257,18.257,0,0,0-.852-2.072,18.1,18.1,0,0,0-1.366-1.777,4.289,4.289,0,0,1,2.217,3.849Z" transform="translate(-43.09 -439.006)"/></g><g transform="translate(12.924 3.795)"><path class="h" d="M48.773,441.493c-.094.017-.291-.9-.8-1.9s-1.122-1.715-1.052-1.78a4.838,4.838,0,0,1,1.857,3.684Z" transform="translate(-46.911 -437.805)"/></g><g transform="translate(15.167 3.128)"><path class="h" d="M52.033,440.579a13.1,13.1,0,0,0-.452-2.039,13.165,13.165,0,0,0-1.052-1.805,3.621,3.621,0,0,1,1.5,3.844Z" transform="translate(-50.525 -436.729)"/></g><g transform="translate(16.125)"><path class="h" d="M52.275,436.172a3.415,3.415,0,0,1-.207-1.436,6.781,6.781,0,0,1,.483-2.47,1.079,1.079,0,0,1,.31-.473.515.515,0,0,1,.663.032.85.85,0,0,1,.258.546,3.77,3.77,0,0,1,.025.51,4.3,4.3,0,0,1-.119.945,5.739,5.739,0,0,1-.595,1.475,3.9,3.9,0,0,1-.868,1.162c-.044-.031.279-.481.665-1.268a6.332,6.332,0,0,0,.507-1.435,4.228,4.228,0,0,0,.093-.882c-.009-.3,0-.667-.178-.81a.188.188,0,0,0-.256-.021.819.819,0,0,0-.212.337,7,7,0,0,0-.292.852,7.773,7.773,0,0,0-.256,1.507C52.24,435.618,52.328,436.164,52.275,436.172Z" transform="translate(-52.068 -431.687)"/></g><g transform="translate(16.357 4.088)"><path class="h" d="M52.441,438.478a2.691,2.691,0,0,1,1.246-.2,5.594,5.594,0,0,1,1.371.168,3.014,3.014,0,0,1,.789.291.814.814,0,0,1,.436.882.963.963,0,0,1-.7.689,1.77,1.77,0,0,1-.867,0,3.33,3.33,0,0,1-1.255-.617,3.4,3.4,0,0,1-.9-.884,8.528,8.528,0,0,1,1.029.7,3.426,3.426,0,0,0,1.184.512A1.527,1.527,0,0,0,55.5,440a.655.655,0,0,0,.471-.459.5.5,0,0,0-.287-.538,2.952,2.952,0,0,0-.7-.273,6.489,6.489,0,0,0-1.3-.227C52.923,438.453,52.449,438.529,52.441,438.478Z" transform="translate(-52.441 -438.277)"/></g><g transform="translate(8.474 5.342)"><path class="h" d="M41.073,443.56a10.364,10.364,0,0,0-.381-1.741,10.4,10.4,0,0,0-.945-1.511,2.771,2.771,0,0,1,1.327,3.252Z" transform="translate(-39.743 -440.299)"/></g><g transform="translate(2.559 9.489)"><path class="h" d="M50.937,446.989a4.056,4.056,0,0,1-.747.351,16.551,16.551,0,0,1-2.15.666,30.662,30.662,0,0,1-7.374.7c-2.895-.032-5.5-.163-7.4-.239l-2.238-.118a4.051,4.051,0,0,1-.819-.087,4.052,4.052,0,0,1,.823-.038l2.242.016,7.389.145a34.582,34.582,0,0,0,7.322-.6C49.836,447.4,50.915,446.929,50.937,446.989Z" transform="translate(-30.213 -446.984)"/></g><g transform="translate(14.477 8.292)"><path class="h" d="M58.789,446.7c-.026.045-.555-.264-1.448-.655a6.728,6.728,0,0,0-3.655-.607,5.786,5.786,0,0,0-3.159,1.878,11.277,11.277,0,0,1-1.113,1.136,5.966,5.966,0,0,1,.945-1.291,7.663,7.663,0,0,1,1.281-1.2,4.584,4.584,0,0,1,2-.845,6.394,6.394,0,0,1,3.8.719A5.153,5.153,0,0,1,58.789,446.7Z" transform="translate(-49.413 -445.055)"/></g></g><g transform="translate(36.692 112.435)"><path class="i" d="M88.5,424.758s18.278,11.959,18.934,12.454c.984.743-.145,4.282-1.85,3.67-.807-.29-16.145-4.554-17.794-5.2s-6.089-4.258-6.089-4.258Z" transform="translate(-81.705 -424.758)"/><g transform="translate(12.215 6.449)"><path class="h" d="M101.395,438.165a4.291,4.291,0,0,1,3.282-2.994,18.268,18.268,0,0,0-1.841,1.278A18.268,18.268,0,0,0,101.395,438.165Z" transform="translate(-101.383 -435.155)"/></g><g transform="translate(10.575 5.022)"><path class="h" d="M98.752,435.811a4.842,4.842,0,0,1,2.888-2.947c.046.084-.754.564-1.543,1.376S98.837,435.855,98.752,435.811Z" transform="translate(-98.741 -432.854)"/></g><g transform="translate(8.915 3.705)"><path class="h" d="M96.091,433.95a3.625,3.625,0,0,1,2.6-3.206,13.078,13.078,0,0,0-1.551,1.4A13.092,13.092,0,0,0,96.091,433.95Z" transform="translate(-96.066 -430.731)"/></g><g transform="translate(9.378 0.083)"><path class="h" d="M97.459,429.461c-.048-.024.2-.517.413-1.367a7.7,7.7,0,0,0,.215-1.514,7.01,7.01,0,0,0-.02-.9.811.811,0,0,0-.1-.385.187.187,0,0,0-.25-.057c-.209.083-.318.437-.416.717a4.24,4.24,0,0,0-.179.869,6.322,6.322,0,0,0,.047,1.521c.128.867.3,1.394.248,1.41a3.889,3.889,0,0,1-.474-1.37,5.757,5.757,0,0,1-.118-1.587,4.236,4.236,0,0,1,.174-.936,3.655,3.655,0,0,1,.179-.478.856.856,0,0,1,.411-.442.515.515,0,0,1,.642.171,1.075,1.075,0,0,1,.151.545,6.8,6.8,0,0,1-.291,2.5A3.419,3.419,0,0,1,97.459,429.461Z" transform="translate(-96.813 -424.891)"/></g><g transform="translate(6.051 3.621)"><path class="h" d="M95.462,431.432c-.024.047-.452-.171-1.188-.35a6.538,6.538,0,0,0-1.309-.179,2.935,2.935,0,0,0-.75.048.5.5,0,0,0-.437.426.654.654,0,0,0,.309.579,1.526,1.526,0,0,0,.68.227,3.434,3.434,0,0,0,1.284-.128,8.484,8.484,0,0,1,1.192-.351,3.413,3.413,0,0,1-1.124.569,3.321,3.321,0,0,1-1.383.207,1.767,1.767,0,0,1-.826-.261.964.964,0,0,1-.454-.868.815.815,0,0,1,.684-.708,3.007,3.007,0,0,1,.84-.037,5.564,5.564,0,0,1,1.357.256A2.7,2.7,0,0,1,95.462,431.432Z" transform="translate(-91.452 -430.595)"/></g><g transform="translate(21.038 10.944)"><path class="h" d="M116.112,446.913c-.021.029-.307-.185-.447-.708a2.693,2.693,0,0,1,.342-1.982,7.32,7.32,0,0,1,.612-.912,3.374,3.374,0,0,1,.621-.666,1.084,1.084,0,0,1,.584-.244c.153-.006.231.031.228.05a1.729,1.729,0,0,0-.665.369,4.176,4.176,0,0,0-.528.666,10.458,10.458,0,0,0-.569.892,2.819,2.819,0,0,0-.4,1.781C115.955,446.632,116.155,446.881,116.112,446.913Z" transform="translate(-115.596 -442.401)"/></g><g transform="translate(14.958 7.843)"><path class="h" d="M105.835,440.116a2.771,2.771,0,0,1,2.252-2.7,10.366,10.366,0,0,0-1.36,1.153A10.388,10.388,0,0,0,105.835,440.116Z" transform="translate(-105.801 -437.402)"/></g><g transform="translate(1.88 7.315)"><path class="h" d="M84.734,436.551a6.468,6.468,0,0,1,.8.551,22.863,22.863,0,0,0,2.253,1.38,29.569,29.569,0,0,0,3.58,1.592c1.384.516,2.936,1,4.578,1.478,3.288.946,6.265,1.811,8.413,2.457l2.54.779a5.624,5.624,0,0,1,.919.328,5.662,5.662,0,0,1-.954-.207l-2.568-.68c-2.165-.59-5.149-1.419-8.44-2.366-1.645-.476-3.2-.975-4.594-1.509a27.033,27.033,0,0,1-3.584-1.67,17.908,17.908,0,0,1-2.218-1.479A4.979,4.979,0,0,1,84.734,436.551Z" transform="translate(-84.733 -436.55)"/></g><g transform="translate(1.202 7.047)"><path class="h" d="M83.642,436.633a5.134,5.134,0,0,1,1.549-.412,6.4,6.4,0,0,1,3.841.469,4.589,4.589,0,0,1,1.644,1.411,7.654,7.654,0,0,1,.857,1.529,6,6,0,0,1,.508,1.517,11.248,11.248,0,0,1-.716-1.421,5.786,5.786,0,0,0-2.439-2.748,6.735,6.735,0,0,0-3.667-.531C84.25,436.549,83.653,436.683,83.642,436.633Z" transform="translate(-83.642 -436.119)"/></g></g><g transform="translate(0 82.215)"><g transform="translate(20.792 2.745)"><path class="m" d="M56.092,413.046s44.824-29.381,46.66-29.992,6.271-3.515,10.707-2.293,8.412,5.2,10.4,11,2.142,18.8,2.142,18.8-3.518,10.241-10.4,12.38a17.513,17.513,0,0,1-1.792.45,21.175,21.175,0,0,1-21.648-9.348l-1-1.522s-29.323,10.765-29.781,10.612Z" transform="translate(-56.092 -380.465)"/></g><path class="m" d="M28.1,377.095a8.749,8.749,0,0,0-5.507,8.1c-.044,11.768,23.8,24.741,23.8,24.741l31.725-21.005v-2.207S37.28,372.051,28.1,377.095Z" transform="translate(-22.597 -376.04)"/><g transform="translate(20.581 4.701)"><path class="i" d="M111.418,406.156s-.081.042-.246.109l-.734.291-2.842,1.093-10.561,3.976c-4.486,1.673-9.859,3.661-15.888,5.854s-12.712,4.594-19.847,7.008l-.13.044-.063-.122-3.5-6.683-1.785-3.409-.069-.131.124-.079,34.192-21.689,10.271-6.474,2.789-1.74.728-.445c.165-.1.254-.143.254-.143s-.078.062-.237.169l-.712.471-2.758,1.789-10.217,6.558L56.05,414.379l.055-.21,1.786,3.408,3.5,6.684-.193-.078c7.132-2.407,13.817-4.8,19.852-6.973l15.911-5.786,10.594-3.884,2.862-1.04.744-.263C111.329,406.178,111.418,406.156,111.418,406.156Z" transform="translate(-55.751 -383.618)"/></g><g transform="translate(20.219 7)"><path class="i" d="M74.4,403.825a6.049,6.049,0,0,1-.826-.56c-.52-.377-1.261-.935-2.17-1.638-1.817-1.4-4.288-3.391-6.947-5.671s-5-4.423-6.662-6c-.831-.791-1.5-1.439-1.947-1.9a5.964,5.964,0,0,1-.679-.731,5.814,5.814,0,0,1,.765.64l2.017,1.819c1.7,1.538,4.062,3.648,6.717,5.927s5.1,4.291,6.878,5.738l2.1,1.717A5.838,5.838,0,0,1,74.4,403.825Z" transform="translate(-55.169 -387.324)"/></g><g transform="translate(14.462 5.374)"><path class="i" d="M45.895,384.783a6.28,6.28,0,0,1,3.057.277,6.28,6.28,0,0,1,2.718,1.426c-.053.084-1.209-.653-2.81-1.116C47.266,384.892,45.894,384.883,45.895,384.783Z" transform="translate(-45.895 -384.704)"/></g><g transform="translate(17.193 3.591)"><g transform="translate(0)"><path class="i" d="M50.3,381.837a4.818,4.818,0,0,1,2.868,3.549c-.092.032-.439-.955-1.238-1.932S50.246,381.921,50.3,381.837Z" transform="translate(-50.295 -381.829)"/></g></g><g transform="translate(3.761 40.83)"><path class="h" d="M28.657,441.895c-.017-.037.379-.113.818.248a2.965,2.965,0,0,1,.917,1.84,3.614,3.614,0,0,1-.289,2.029c-.225.482-.472.708-.5.685-.043-.03.13-.3.287-.77a4.115,4.115,0,0,0,.181-1.9,3.181,3.181,0,0,0-.75-1.716C28.984,441.96,28.65,441.946,28.657,441.895Z" transform="translate(-28.656 -441.862)"/></g></g><g transform="translate(27.341 36.301)"><path class="j" d="M66.642,302.02" transform="translate(-66.642 -302.02)"/></g><g transform="translate(69.869 0) rotate(22)"><g transform="translate(2.627 -0.001)"><path class="n" d="M35.243,31.264s6.214-5.239,4.775-8.846S34.6,17.024,32.636,10.467c-1.565-5.24-10.9-15.331-21.955-7.74,0,0-3.743-.589-5.873,1.115S2.166,8.947,1.261,12.875C-.133,18.927-.9,23.58,1.8,26.536s3.679,3.757,3.534,7.122c-.189,4.392-2.127,3.805-.456,7.006l9.276-3.028.1-2.552.939,2.4,5.4-1.941Z"/></g><g transform="translate(5.512 4.483)"><g transform="translate(0 0)"><g transform="translate(-0.001 4.705)"><path class="n" d="M1.48,0c.6,1.384.108,2.981-.465,4.378S-.221,7.253.068,8.735C.58,11.36,3.84,12.822,4.2,15.472c.194,1.42-.52,2.865-.245,4.272a4.907,4.907,0,0,0,2.61,3.07c1.206.684,2.543,1.139,3.677,1.937,0,0,2.5,2.045,6.793-1.329"/></g><g transform="translate(2.598 1.216)"><path class="j" d="M16.5.056a2.284,2.284,0,0,1,2.692,1.516h0L26.6,27.429c1.15,3.457-3.2,7.15-6.917,8.354h0c-3.75,1.216-4.508-.565-5.7-3.82-1.991-5.438-1.2-3.785-1.2-3.753,0,0-4.975.855-8.082-4.94C3.156,20.388,1.571,15.334.408,11.156-.639,7.4.232,2.033,4.035,1.145Z"/><g transform="translate(12.784 23.162)"><path class="o" d="M0,5.047A16.542,16.542,0,0,0,7.457,0S6.849,4.936.507,6.5Z"/></g></g><g transform="translate(4.945 -0.001)"><path class="n" d="M24.519,20.668,19.51,3.889A5.724,5.724,0,0,0,17.817.795,5.475,5.475,0,0,0,14.573.009,61.6,61.6,0,0,0,.033,1.448,2.5,2.5,0,0,0,1.891,4.037a11.165,11.165,0,0,0,3.46.251A4.334,4.334,0,0,1,8.563,5.363c.836.909.918,2.315,1.708,3.265,1.36,1.634,4.2,1.288,5.554,2.93,1.021,1.242.745,3.057,1.081,4.63.381,1.781.381,1.781,1.775,4.4.855,1.608-1.3,4.677.846,8.657l4.164-1.185-1.827-6.148,2.476,5.766Z"/></g></g></g><g transform="translate(21.752 10.099)"><path class="p" d="M0,0A1.128,1.128,0,0,0,.231.132,7.28,7.28,0,0,1,.893.5,7.824,7.824,0,0,1,2.947,2.332,7.873,7.873,0,0,1,4.566,6.038a9.071,9.071,0,0,1-.018,2.411,14.607,14.607,0,0,0-.159,2.638,4.762,4.762,0,0,0,.286,1.331,7.989,7.989,0,0,0,.6,1.168,5.869,5.869,0,0,1,.939,2.194,7.51,7.51,0,0,1-.056,2.174c-.1.684-.217,1.32-.265,1.915A5.069,5.069,0,0,0,6.3,22.63a2.779,2.779,0,0,0,.445.624,1.128,1.128,0,0,0,.2.173,4,4,0,0,1-.567-.837,5.15,5.15,0,0,1-.328-2.705c.057-.581.187-1.214.292-1.9a7.6,7.6,0,0,0,.078-2.234c-.176-1.652-1.77-2.862-1.8-4.678a14.753,14.753,0,0,1,.153-2.6,9.151,9.151,0,0,0,0-2.467,7.915,7.915,0,0,0-1.7-3.778A7.49,7.49,0,0,0,.939.419,5.214,5.214,0,0,0,.251.089,1.11,1.11,0,0,0,0,0Z"/></g><g transform="translate(1.638 5.865)"><path class="p" d="M-.007,29.466s.023.024.075.062a2.564,2.564,0,0,0,.238.159,3.765,3.765,0,0,0,1.021.416,4.232,4.232,0,0,0,1.743.063,3.9,3.9,0,0,0,2.064-1.027,4.221,4.221,0,0,0,1.238-2.5,3.943,3.943,0,0,0-.1-1.575,4.818,4.818,0,0,0-.739-1.5,19.7,19.7,0,0,0-2.48-2.53,9.444,9.444,0,0,1-1.22-1.378,6.624,6.624,0,0,1-.837-1.687,10.86,10.86,0,0,1-.471-3.7,26.3,26.3,0,0,1,.365-3.492,32.924,32.924,0,0,1,1.5-5.76,34.276,34.276,0,0,1,1.575-3.7c.211-.426.38-.754.5-.975A2.3,2.3,0,0,0,4.621,0a2.387,2.387,0,0,0-.206.323c-.131.214-.313.536-.537.957A30.336,30.336,0,0,0,2.229,4.962,31.86,31.86,0,0,0,.674,10.743a26.07,26.07,0,0,0-.382,3.522,11,11,0,0,0,.479,3.78,6.806,6.806,0,0,0,.867,1.745A9.563,9.563,0,0,0,2.891,21.2a19.9,19.9,0,0,1,2.463,2.49,4.629,4.629,0,0,1,.716,1.428,3.763,3.763,0,0,1,.109,1.5A4.069,4.069,0,0,1,5.019,29.02a3.788,3.788,0,0,1-1.972,1.017,4.237,4.237,0,0,1-1.7-.023A4.929,4.929,0,0,1-.007,29.466Z"/></g><g transform="translate(12.648 4.456)"><path class="p" d="M27.165,24.782a3.956,3.956,0,0,1-1.443-.716,5.758,5.758,0,0,1-1.911-3.856,22.068,22.068,0,0,1-.077-3.065,13.44,13.44,0,0,0-.275-3.54,6.54,6.54,0,0,0-.723-1.8,4.285,4.285,0,0,0-1.416-1.453c-1.217-.745-2.709-.709-4.033-1.172a4.244,4.244,0,0,1-1.718-1.122,10.45,10.45,0,0,1-1.215-1.64,9.165,9.165,0,0,0-2.5-3.019,4.269,4.269,0,0,0-1.738-.632A9.59,9.59,0,0,0,8.385,2.7a17.739,17.739,0,0,1-3.064-.023A9.14,9.14,0,0,1,1.249,1.048,10.083,10.083,0,0,1,.312.285L.084.069A.391.391,0,0,0,0,0,6.414,6.414,0,0,0,1.195,1.121,9,9,0,0,0,5.3,2.837,17.461,17.461,0,0,0,8.39,2.89a5.7,5.7,0,0,1,3.347.694,9.045,9.045,0,0,1,2.424,2.961A10.589,10.589,0,0,0,15.4,8.222a4.477,4.477,0,0,0,1.809,1.183c1.384.475,2.853.443,3.992,1.146a4.917,4.917,0,0,1,2.049,3.107,13.371,13.371,0,0,1,.29,3.486,21.643,21.643,0,0,0,.107,3.088,5.782,5.782,0,0,0,2.018,3.906,3.332,3.332,0,0,0,1.083.56,2.36,2.36,0,0,0,.309.071A.377.377,0,0,0,27.165,24.782Z"/></g><g transform="translate(14.315 3.411)"><path class="p" d="M21.006,7.245a5.411,5.411,0,0,1-.886.238,4.377,4.377,0,0,1-2.423-.4A10.138,10.138,0,0,1,14.8,4.8c-.493-.5-1.006-1.04-1.592-1.547a7.322,7.322,0,0,0-2.023-1.3,6.59,6.59,0,0,0-2.365-.434A19.887,19.887,0,0,0,6.6,1.653c-.7.067-1.368.137-1.988.143a8.629,8.629,0,0,1-1.718-.14A4.756,4.756,0,0,1,.636.664,7.942,7.942,0,0,1,0,0,.928.928,0,0,0,.122.209,1.56,1.56,0,0,0,.3.442a2.246,2.246,0,0,0,.276.29A4.67,4.67,0,0,0,2.858,1.818a8.546,8.546,0,0,0,1.751.171c.634,0,1.3-.061,2.007-.122a20.429,20.429,0,0,1,2.2-.109,6.426,6.426,0,0,1,2.282.422,11.465,11.465,0,0,1,3.549,2.777,10.017,10.017,0,0,0,2.986,2.28,4.321,4.321,0,0,0,2.5.337,2.951,2.951,0,0,0,.661-.208A.946.946,0,0,0,21.006,7.245Z"/></g><g transform="translate(2.508 4.386)"><path class="p" d="M.335,18.857A3.658,3.658,0,0,1,.114,18a3.709,3.709,0,0,1,.641-2.267,15.091,15.091,0,0,1,2.463-2.608A6.55,6.55,0,0,0,4.524,11.4,6.029,6.029,0,0,0,5.081,9.15c.1-1.593-.168-3.082-.132-4.431a5.333,5.333,0,0,1,.989-3.346A3.329,3.329,0,0,1,7.908.108,3.942,3.942,0,0,1,8.79.086a.888.888,0,0,0-.225-.06A2.312,2.312,0,0,0,7.895.018a3.342,3.342,0,0,0-2.085,1.25A5.434,5.434,0,0,0,4.734,4.714c-.047,1.376.218,2.868.115,4.419a5.872,5.872,0,0,1-.53,2.171,6.416,6.416,0,0,1-1.253,1.673A14.465,14.465,0,0,0,.614,15.651a3.693,3.693,0,0,0-.59,2.363,2.22,2.22,0,0,0,.19.643A.846.846,0,0,0,.335,18.857Z"/></g><g transform="translate(27.32 2.158)"><path class="q" d="M15.244,23.764a1.726,1.726,0,0,0,.287-.158,3.274,3.274,0,0,0,.7-.628,4.068,4.068,0,0,0,.863-3.274,3.9,3.9,0,0,0-.383-1.1,4.248,4.248,0,0,0-.791-.979,10.027,10.027,0,0,0-2.334-1.436,9.164,9.164,0,0,1-2.494-1.587,5.874,5.874,0,0,1-1.411-2.792c-.272-1.063-.457-2.137-.806-3.134a13.549,13.549,0,0,0-1.3-2.732A14.147,14.147,0,0,0,4.158,2.159,13.074,13.074,0,0,0,1.191.418,8.4,8.4,0,0,0,.314.091,1.721,1.721,0,0,0,0,0c-.009.026.421.16,1.154.5a13.951,13.951,0,0,1,2.9,1.788A14.257,14.257,0,0,1,7.388,6.06,13.5,13.5,0,0,1,8.657,8.753c.339.977.521,2.04.8,3.119a6.068,6.068,0,0,0,1.475,2.894,9.253,9.253,0,0,0,2.561,1.619,10,10,0,0,1,2.3,1.387,4.11,4.11,0,0,1,.764.923,3.786,3.786,0,0,1,.378,1.038,4.156,4.156,0,0,1-.107,1.9,3.814,3.814,0,0,1-.664,1.287A4.607,4.607,0,0,1,15.244,23.764Z"/></g><g transform="translate(-0.001 5.288)"><path class="q" d="M1.58,18.373c.02-.019-.191-.214-.477-.638a5.444,5.444,0,0,1-.8-1.988,7.5,7.5,0,0,1,.111-3.168A12.706,12.706,0,0,1,2.028,9.014c.74-1.189,1.537-2.267,2.21-3.287A18.667,18.667,0,0,0,5.827,2.892,9.425,9.425,0,0,0,6.475.8,5.654,5.654,0,0,0,6.549.206a.684.684,0,0,0,0-.208C6.529,0,6.5.28,6.386.78a10.6,10.6,0,0,1-.711,2.045A19.982,19.982,0,0,1,4.059,5.607C3.38,6.615,2.576,7.691,1.829,8.891a12.543,12.543,0,0,0-1.62,3.638,7.455,7.455,0,0,0-.064,3.251,5.2,5.2,0,0,0,.883,2.007,3.7,3.7,0,0,0,.395.449C1.521,18.332,1.575,18.379,1.58,18.373Z"/></g></g></g></g><g transform="translate(222.435 179.905)"><g transform="translate(20.924 80.937)"><g transform="translate(0.074 0.074)"><rect width="43.304" height="5.946"/></g><path class="h" d="M426.446,393.372H382.994v-6.094h43.452Zm-43.3-.148H426.3v-5.8H383.142Z" transform="translate(-382.994 -387.278)"/></g><g transform="translate(25.013 84.978)"><path d="M389.582,393.792l6.233,30.729h23.063l6.026-28.749Z" transform="translate(-389.582 -393.792)"/></g><g transform="translate(25.013 112.8)"><path class="r" d="M389.582,438.644l3.324,4.568h28.033l3.964-4.568Z" transform="translate(-389.582 -438.644)"/></g><g transform="translate(40.756 22.287)"><path class="h" d="M415.211,356.315c-.085,0-.194-14.235-.243-31.792s-.02-31.8.065-31.8.194,14.232.244,31.8S415.3,356.315,415.211,356.315Z" transform="translate(-414.943 -292.727)"/></g><g transform="translate(46.683 50.25)"><path class="h" d="M428.478,337.808a1.563,1.563,0,0,1-.116.331l-.387.921-.282.663-.288.808-.334.927c-.116.329-.207.687-.32,1.057a43,43,0,0,0-1.211,5.3,64.257,64.257,0,0,0-.67,6.625,89.233,89.233,0,0,0,.342,12.1c.139,1.545.279,2.793.382,3.655.045.4.081.733.109.994a.176.176,0,1,1-.061.009c-.044-.259-.1-.585-.167-.986-.139-.858-.313-2.1-.48-3.65a79.658,79.658,0,0,1-.433-12.139,60.262,60.262,0,0,1,.7-6.658,40.066,40.066,0,0,1,1.283-5.315c.121-.37.22-.728.343-1.056l.358-.924.313-.8c.107-.242.216-.458.309-.656l.441-.9A1.486,1.486,0,0,1,428.478,337.808Z" transform="translate(-424.49 -337.808)"/></g><g transform="translate(43.941 38.736)"><path class="h" d="M425.7,319.246a2.889,2.889,0,0,1-.138.47l-.451,1.324-.331.954-.348,1.149c-.253.824-.547,1.76-.808,2.813q-.209.787-.435,1.646l-.406,1.8c-.3,1.239-.521,2.585-.8,3.991-.477,2.827-.9,5.953-1.188,9.25-.274,3.3-.393,6.452-.434,9.321-.009,2.868.028,5.453.146,7.62.038,1.085.107,2.064.163,2.924s.1,1.6.159,2.206q.067.876.106,1.394a2.872,2.872,0,0,1,.016.489,2.89,2.89,0,0,1-.078-.482q-.061-.519-.163-1.39c-.074-.6-.145-1.343-.212-2.2s-.157-1.84-.209-2.926c-.147-2.169-.205-4.758-.212-7.633.026-2.874.137-6.036.412-9.345.291-3.306.721-6.441,1.215-9.274.288-1.409.516-2.757.831-4q.22-.933.424-1.8l.456-1.646c.275-1.053.584-1.987.854-2.808l.374-1.144.357-.947.506-1.306A2.841,2.841,0,0,1,425.7,319.246Z" transform="translate(-420.073 -319.246)"/></g><g transform="translate(30.034 24.212)"><path class="h" d="M405.921,360.012a.645.645,0,0,1-.024-.166c-.011-.128-.024-.289-.041-.49-.031-.453-.073-1.084-.127-1.885-.1-1.661-.252-4.024-.435-6.934-.376-5.854-.919-13.941-1.905-22.835-.5-4.446-1.088-8.669-1.7-12.5-.323-1.911-.615-3.73-.948-5.421-.3-1.7-.633-3.269-.935-4.7-.284-1.439-.6-2.726-.857-3.863s-.493-2.111-.7-2.905c-.191-.779-.342-1.393-.45-1.834L397.7,296a.7.7,0,0,1-.027-.166.669.669,0,0,1,.058.158l.139.471.506,1.821c.221.791.48,1.76.748,2.9s.6,2.42.9,3.856c.316,1.434.657,3,.973,4.7.344,1.692.646,3.511.977,5.423.623,3.832,1.217,8.059,1.721,12.51.986,8.9,1.5,17,1.816,22.856.159,2.929.27,5.3.336,6.941.029.8.053,1.434.07,1.888,0,.2.007.363.01.491A.67.67,0,0,1,405.921,360.012Z" transform="translate(-397.67 -295.831)"/></g><g transform="translate(27.05 25.571)"><path class="s" d="M406.484,301.581a4.29,4.29,0,0,0-4.255-3.559,6.7,6.7,0,0,0-5.155,2.8,16.1,16.1,0,0,0-2.482,5.506,37.381,37.381,0,0,0-1.528,14.652,22.17,22.17,0,0,0,6.1,13.21,2.5,2.5,0,0,0,2.1.96,2.539,2.539,0,0,0,1.109-.685,32.777,32.777,0,0,0,10.649-24.934,10.116,10.116,0,0,0-1.335-5.364c-1.034-1.555-3.446-3.206-5.207-2.582" transform="translate(-392.863 -298.022)"/></g><g transform="translate(14.451)"><g transform="translate(0.047 5.595)"><path class="t" d="M383.68,273.2l-2.855,5.167c-.066.12-.155.255-.292.267s-.262-.13-.344-.256L372.642,266.8l1.739-.984Z" transform="translate(-372.642 -265.818)"/></g><path class="s" d="M398.961,279.084,373.215,263.9a1.2,1.2,0,0,1-.627-.632c-.1-.381.184-.748.458-1.031a17.748,17.748,0,0,1,13.759-5.4,15.722,15.722,0,0,1,12.439,7.73,14.163,14.163,0,0,1-.283,14.515" transform="translate(-372.567 -256.798)"/><g transform="translate(4.358 2.166)"><path class="h" d="M379.588,260.383a1.415,1.415,0,0,1,.338-.042c.222-.011.549-.051.973-.047a19.39,19.39,0,0,1,3.572.284,20.871,20.871,0,0,1,16.664,15.068,19.355,19.355,0,0,1,.638,3.523c.047.421.039.75.05.972a1.408,1.408,0,0,1-.008.339c-.027,0-.06-.464-.162-1.3a21.9,21.9,0,0,0-.728-3.477,21.028,21.028,0,0,0-16.493-14.913,21.97,21.97,0,0,0-3.535-.378C380.057,260.4,379.59,260.411,379.588,260.383Z" transform="translate(-379.588 -260.291)"/></g><g transform="translate(13.641 11.801)"><path class="h" d="M403.81,275.83a6.213,6.213,0,0,1-1.3.591c-.821.323-1.967.736-3.249,1.143s-2.458.731-3.314.94a6.212,6.212,0,0,1-1.4.267,6.979,6.979,0,0,1,1.345-.478l3.279-1.023,3.268-1.055A6.981,6.981,0,0,1,403.81,275.83Z" transform="translate(-394.542 -275.824)"/></g><g transform="translate(18.805 0.925)"><path class="h" d="M402.91,258.29a17.959,17.959,0,0,1,.146,5.752,54.013,54.013,0,0,1-.146-5.752Z" transform="translate(-402.86 -258.29)"/></g><g transform="translate(0.423 3.647)"><path class="h" d="M373.249,265.848a11.621,11.621,0,0,1,1.87-.658c1.169-.36,2.8-.816,4.614-1.254s3.475-.772,4.68-.983a11.433,11.433,0,0,1,1.965-.265,14,14,0,0,1-1.922.479c-1.192.266-2.839.634-4.651,1.069s-3.445.858-4.628,1.164A13.854,13.854,0,0,1,373.249,265.848Z" transform="translate(-373.249 -262.678)"/></g></g><g transform="translate(0 22.439)"><path class="s" d="M378.261,294.89c-2.214-1.678-4.556-2.009-7.332-1.9a22.432,22.432,0,0,0-8.025,2.069c-4.341,1.9-8.422,4.7-11.016,8.664s-3.5,9.211-1.554,13.531a1.926,1.926,0,0,0,.879,1.066,2.1,2.1,0,0,0,1.453-.111,81.355,81.355,0,0,0,14.451-5.755c4.54-2.521,8.672-6.024,11.108-10.608a9.109,9.109,0,0,0,1.169-3.52,4.373,4.373,0,0,0-1.133-3.438" transform="translate(-349.287 -292.972)"/><g transform="translate(1.706 1.395)"><path class="h" d="M379.347,295.224a1.84,1.84,0,0,1-.356.144l-1.034.355-.749.25c-.272.1-.561.219-.875.341-.625.252-1.35.5-2.114.875l-1.211.551c-.42.194-.839.432-1.282.658-.9.439-1.8,1-2.765,1.569a43.684,43.684,0,0,0-10.892,9.576c-.688.883-1.36,1.71-1.911,2.541-.281.411-.57.8-.816,1.188l-.7,1.13c-.465.71-.808,1.4-1.138,1.983-.161.3-.318.568-.45.824l-.343.711-.484.979a1.811,1.811,0,0,1-.189.334,1.776,1.776,0,0,1,.132-.359l.433-1.006q.147-.331.32-.725c.124-.262.275-.538.428-.839.317-.6.649-1.295,1.1-2.015l.688-1.147c.242-.4.529-.788.806-1.2.545-.843,1.214-1.68,1.9-2.574a42.294,42.294,0,0,1,10.964-9.64c.975-.566,1.891-1.122,2.8-1.554.449-.223.873-.457,1.3-.646l1.225-.536c.773-.359,1.508-.6,2.141-.837.318-.114.612-.228.888-.318l.76-.225,1.054-.3A1.767,1.767,0,0,1,379.347,295.224Z" transform="translate(-352.035 -295.222)"/></g><g transform="translate(0.859 10.75)"><path class="h" d="M361.53,310.31a103.842,103.842,0,0,1-10.859,3.173,103.963,103.963,0,0,1,10.859-3.173Z" transform="translate(-350.671 -310.303)"/></g><g transform="translate(11.357 11.191)"><path class="h" d="M367.722,322.457a8.633,8.633,0,0,1-.119-1.677c-.029-1.036-.033-2.47.011-4.052s.129-3.013.215-4.047a8.605,8.605,0,0,1,.212-1.668,9.607,9.607,0,0,1,.006,1.68c-.035,1.136-.078,2.517-.125,4.044s-.073,2.907-.1,4.043A9.647,9.647,0,0,1,367.722,322.457Z" transform="translate(-367.582 -311.013)"/></g><g transform="translate(20.752 4.421)"><path class="h" d="M383.644,313.13c-.085.006-.356-2.907-.605-6.5s-.382-6.52-.3-6.526.356,2.906.6,6.5S383.729,313.124,383.644,313.13Z" transform="translate(-382.717 -300.1)"/></g><g transform="translate(9.005 4.085)"><path class="h" d="M363.793,299.611a9.559,9.559,0,0,1,1.727-.052c1.065.007,2.534.038,4.156.092s3.091.119,4.154.182a9.613,9.613,0,0,1,1.719.166,9.492,9.492,0,0,1-1.724.052c-1.065-.007-2.535-.038-4.159-.092s-3.093-.12-4.156-.183A9.564,9.564,0,0,1,363.793,299.611Z" transform="translate(-363.793 -299.557)"/></g></g><g transform="translate(34.339 29.202)"><path class="h" d="M404.722,337.795a1.534,1.534,0,0,1-.037-.352c-.012-.265-.027-.6-.045-1.011-.039-.878-.048-2.15-.015-3.721s.133-3.441.318-5.511c.2-2.069.49-4.338.906-6.7s.939-4.591,1.465-6.6c.542-2.007,1.09-3.8,1.607-5.283s.96-2.677,1.3-3.487l.392-.933a1.481,1.481,0,0,1,.156-.317,1.545,1.545,0,0,1-.1.34l-.338.953c-.3.822-.72,2.022-1.2,3.513s-1.014,3.281-1.539,5.286c-.51,2.008-1.011,4.231-1.436,6.585s-.711,4.613-.927,6.674-.327,3.925-.383,5.491-.085,2.836-.083,3.713c0,.411-.009.746-.012,1.01A1.532,1.532,0,0,1,404.722,337.795Z" transform="translate(-404.605 -303.876)"/></g><g transform="translate(28.01 45.565)"><path class="h" d="M402.214,330.257a7.078,7.078,0,0,1-1.027,1.126c-.666.664-1.611,1.555-2.69,2.5s-2.088,1.766-2.834,2.339a7.1,7.1,0,0,1-1.251.87,7.886,7.886,0,0,1,1.114-1.038l2.768-2.4,2.745-2.427A7.953,7.953,0,0,1,402.214,330.257Z" transform="translate(-394.41 -330.255)"/></g><g transform="translate(36.686 41.677)"><path class="h" d="M415.664,334.436a12.048,12.048,0,0,1-1.094-1.514l-2.544-3.709-2.6-3.674a12.1,12.1,0,0,1-1.04-1.551,10.406,10.406,0,0,1,1.215,1.421c.714.906,1.669,2.183,2.675,3.629s1.872,2.783,2.474,3.768A10.51,10.51,0,0,1,415.664,334.436Z" transform="translate(-408.386 -323.987)"/></g><g transform="translate(27.436 31.495)"><path class="h" d="M405.743,307.575c.046.071-2.661,1.893-6.046,4.067s-6.167,3.88-6.213,3.808,2.661-1.893,6.046-4.067S405.7,307.5,405.743,307.575Z" transform="translate(-393.484 -307.572)"/></g><g transform="translate(39.352 31.946)"><path class="h" d="M420.657,316.082a100.7,100.7,0,0,1-7.974-7.782,100.987,100.987,0,0,1,7.974,7.782Z" transform="translate(-412.682 -308.298)"/></g><g transform="translate(49.247 22.381)"><g transform="translate(0 0.188)"><path class="s" d="M428.621,310.178l2.324-.192a11.5,11.5,0,0,0,4.693-1.435,18.7,18.7,0,0,1,2.187-1.1c2.873-1.153,6.079-.946,9.171-1.1a37.987,37.987,0,0,0,14.588-3.728,1.414,1.414,0,0,0,.636-.576c.477-.869-.409-1.643-1.172-2.112-3.915-2.411-7.9-4.852-12.34-6.049s-9.48-.994-13.268,1.611c-4.447,3.058-6.067,9.339-6.819,14.681" transform="translate(-428.621 -293.183)"/></g><g transform="translate(0.05 2.389)"><path class="h" d="M462.3,303.109a2.252,2.252,0,0,1-.394-.184l-1.1-.576c-.955-.5-2.331-1.243-4.068-2.076a38.051,38.051,0,0,0-6.3-2.425,20.794,20.794,0,0,0-8.162-.661,13.959,13.959,0,0,0-7.441,3.193,16.539,16.539,0,0,0-3.874,5.438,45.482,45.482,0,0,0-1.686,4.234l-.413,1.171a2.339,2.339,0,0,1-.163.4,2.341,2.341,0,0,1,.1-.422l.359-1.19a38.576,38.576,0,0,1,1.6-4.288,16.468,16.468,0,0,1,3.884-5.559,14.112,14.112,0,0,1,7.589-3.286,20.786,20.786,0,0,1,8.278.693,36.625,36.625,0,0,1,6.317,2.5c1.732.861,3.093,1.632,4.031,2.167l1.074.627A2.347,2.347,0,0,1,462.3,303.109Z" transform="translate(-428.701 -296.73)"/></g><g transform="translate(14.667 2.73)"><path class="h" d="M465.652,306.314c-.047.071-3.087-1.894-6.787-4.387s-6.664-4.573-6.616-4.644,3.086,1.894,6.789,4.389S465.7,306.243,465.652,306.314Z" transform="translate(-452.248 -297.28)"/></g><g transform="translate(20.359 2.414)"><path class="h" d="M466.211,296.8a11.4,11.4,0,0,1-4.792.44,55.991,55.991,0,0,1,4.792-.44Z" transform="translate(-461.419 -296.771)"/></g><g transform="translate(9.256)"><path class="h" d="M445.8,292.881a16.094,16.094,0,0,1-2.26,3.828,16.118,16.118,0,0,1,2.26-3.828Z" transform="translate(-443.532 -292.879)"/></g><g transform="translate(5 7.017)"><path class="h" d="M445.924,310.727a8.062,8.062,0,0,1-1.463-.792c-.878-.533-2.064-1.313-3.332-2.232s-2.386-1.79-3.189-2.427a9.01,9.01,0,0,1-1.262-1.082,8.775,8.775,0,0,1,1.393.907l3.239,2.351c1.264.917,2.425,1.721,3.27,2.3A10,10,0,0,1,445.924,310.727Z" transform="translate(-436.676 -304.191)"/></g></g><g transform="translate(47.225 48.382)"><path class="s" d="M430.808,335.844c-2.216-.585-4.859,1.569-5.316,3.814s.386,4.541,1.372,6.609a33.707,33.707,0,0,0,9.166,11.984,22.678,22.678,0,0,0,14.015,5.156c-.937-4.35.248-8.893-.274-13.311a17.322,17.322,0,0,0-15.346-15.183c-1.415-.153-3.052-.375-3.617.931" transform="translate(-425.364 -334.796)"/><g transform="translate(5.441 1.048)"><path class="h" d="M453.369,364.049a1.453,1.453,0,0,1-.315-.147,5.737,5.737,0,0,1-.829-.556,8.637,8.637,0,0,1-2.188-2.925c-.354-.686-.749-1.43-1.134-2.255s-.773-1.708-1.192-2.634a25.577,25.577,0,0,0-1.466-2.816,22.071,22.071,0,0,0-2.017-2.741c-1.517-1.781-3.145-3.322-4.557-4.795a31.312,31.312,0,0,1-3.475-4.165,15.319,15.319,0,0,1-1.7-3.24c-.143-.409-.245-.728-.3-.95a1.507,1.507,0,0,1-.07-.34c.029-.009.155.452.478,1.246a16.735,16.735,0,0,0,1.766,3.161,33.021,33.021,0,0,0,3.5,4.092c1.418,1.456,3.055,2.993,4.589,4.792a21.79,21.79,0,0,1,2.039,2.783,25.04,25.04,0,0,1,1.467,2.855l1.166,2.644c.372.821.756,1.573,1.1,2.262a8.961,8.961,0,0,0,2.072,2.933C452.95,363.812,453.388,364.019,453.369,364.049Z" transform="translate(-434.129 -336.486)"/></g><g transform="translate(13.208 15.15)"><path class="h" d="M446.653,369.067a6.614,6.614,0,0,1,.2-1.491c.174-.912.459-2.164.842-3.529s.8-2.581,1.125-3.449a6.656,6.656,0,0,1,.605-1.378,8.007,8.007,0,0,1-.4,1.448c-.275.884-.651,2.1-1.034,3.462s-.7,2.6-.927,3.492A8.016,8.016,0,0,1,446.653,369.067Z" transform="translate(-446.642 -359.22)"/></g><g transform="translate(13.618 11.912)"><path class="h" d="M457.946,356.409a9.165,9.165,0,0,1-1.562-.359c-.955-.249-2.274-.59-3.741-.921s-2.806-.587-3.775-.77a9.208,9.208,0,0,1-1.564-.344,7.557,7.557,0,0,1,1.6.129c.981.13,2.333.354,3.809.685s2.792.708,3.734,1.012A7.567,7.567,0,0,1,457.946,356.409Z" transform="translate(-447.303 -353.999)"/></g><g transform="translate(4.984 5.95)"><path class="h" d="M433.4,355.861a8.938,8.938,0,0,1,.24-1.725c.195-1.058.505-2.511.919-4.1s.856-3.008,1.2-4.026a9.012,9.012,0,0,1,.634-1.622,10.487,10.487,0,0,1-.426,1.687c-.293,1.032-.7,2.456-1.112,4.039s-.755,3.023-1,4.066A10.612,10.612,0,0,1,433.4,355.861Z" transform="translate(-433.394 -344.389)"/></g><g transform="translate(6.848 3.694)"><path class="h" d="M448.725,342.075c-.009.085-2.776-.139-6.18-.5s-6.157-.722-6.148-.806,2.775.139,6.18.5S448.733,341.99,448.725,342.075Z" transform="translate(-436.397 -340.751)"/></g></g><g transform="translate(20.926 86.778)"><path class="i" d="M426.446,396.848c0,.086-9.727.154-21.723.154S383,396.933,383,396.848s9.725-.154,21.725-.154S426.446,396.763,426.446,396.848Z" transform="translate(-382.998 -396.694)"/></g><g transform="translate(28.333 99.286)"><path class="i" d="M424.2,417.013c0,.085-6.553.154-14.636.154s-14.637-.069-14.637-.154,6.552-.154,14.637-.154S424.2,416.928,424.2,417.013Z" transform="translate(-394.93 -416.859)"/></g><g transform="translate(28.589 101.074)"><path class="i" d="M424.616,419.9c0,.085-6.554.154-14.636.154s-14.637-.069-14.637-.154,6.552-.154,14.637-.154S424.616,419.811,424.616,419.9Z" transform="translate(-395.342 -419.742)"/></g><g transform="translate(27.583 97.812)"><path class="i" d="M424,414.636c0,.086-6.779.154-15.139.154s-15.141-.069-15.141-.154,6.777-.154,15.141-.154S424,414.551,424,414.636Z" transform="translate(-393.721 -414.482)"/></g></g></g></svg>