<svg id="Layer_1" data-name="Layer 1" xmlns="http://www.w3.org/2000/svg" viewBox="0 0 1920 789"><defs><style>.cls-1{fill:#464746;}.cls-2{fill:#f68d2f;}</style></defs><title>gharpar-logo</title><path class="cls-1" d="M411.1,519.85h-134V503.46c1.64-.09,3.18-.26,4.73-.26q71.52,0,143.05-.05c3.09,0,5.26.11,5.35,4.17.63,31.63-.74,63-9.92,93.61-17,56.64-55.35,89.9-112.61,101.81-37.27,7.76-74.25,6.41-110.26-6.83-34.32-12.6-59.49-36.11-78-67.15-16-26.83-25.38-56-28.95-86.91a436.3,436.3,0,0,1-3.18-54.3c.38-40.75,7-80.41,25.9-117.13,22.11-42.94,55-73.34,103-84.38,45.53-10.46,90.29-7.81,133.2,12.12A120.39,120.39,0,0,1,393.17,332a153.62,153.62,0,0,1,15.74,22.77c4.08,7.54,6.44,16,9.68,24.41L401,387.63c-.88-2.48-1.6-4.49-2.31-6.51C383,336.26,351.36,309.78,305,300.91c-29.61-5.67-59.26-5.71-88.42,2.95-37,11-63.23,35.15-81.91,68.18-14.58,25.79-22.18,53.77-25.56,83-4.1,35.48-3.1,70.75,4.58,105.69,6,27.42,16.87,52.72,34,75.16,21.07,27.59,48.41,45.16,82.6,51.69,31,5.91,61.76,4.91,91.56-5.61,45.25-16,72.31-48.76,84.26-94.68C411.7,565.87,412,544,411.55,522A14.69,14.69,0,0,0,411.1,519.85Z"/><path class="cls-1" d="M1479.1,540.5l-19.63,9.89c-1.53-3.5-2.74-6.43-4.08-9.3-9.05-19.38-25.15-29.28-45.5-32.5a263.22,263.22,0,0,0-38.1-3.47c-40.7-.43-81.4-.16-122.1-.15-1.42,0-2.84.14-4.83.24V698.4h-19.38V289.47h5.77q65,0,130,0c24.74,0,49.33,1.56,73.35,8.14,38,10.4,60.42,36.49,65.36,75.51,2.4,18.91,2.46,37.68-2.33,56.21-8.32,32.17-29.53,52.47-59.83,64.23-2.78,1.09-5.6,2.1-9.83,3.67C1453.25,502.94,1470.38,516.49,1479.1,540.5ZM1245.1,488c1.52.12,2.79.31,4.06.31,43.88-.12,87.76-.17,131.64-.45a147.79,147.79,0,0,0,45-7.13c28-9.13,47-27,53.78-56.39,3.67-15.75,3.74-31.67,1.24-47.59-4.91-31.24-21.43-52.93-52-63.17-15.39-5.15-31.35-6.17-47.26-6.35-44.61-.51-89.23-.33-133.84-.4a19.09,19.09,0,0,0-2.57.36Z"/><path class="cls-1" d="M804.89,698.38H786.61V518.3H527.31v180H508.45V338.86h18.64V500.79H786.46v-162h18.43Z"/><path class="cls-1" d="M1183.45,698.6c-5.9,0-11.25.17-16.58-.14-1-.06-2.42-1.77-2.89-3-8.69-22.56-17.25-45.16-25.86-67.75Q1078.76,472,1019.38,316.2c-.44-1.15-1-2.26-1.93-4.34-1.94,4.85-3.56,8.79-5.1,12.77L881.67,662.35c-4.19,10.83-8.47,21.62-12.41,32.54-1.1,3-2.64,4-5.69,3.79-4.6-.23-9.22-.06-14.41-.06,4.16-10.77,8.13-21,12.08-31.28q72-186.83,143.84-373.68c1.27-3.32,2.84-4.49,6.28-4.26,5.63.39,12.58-1.57,16.56,1.09,3.75,2.5,4.44,9.66,6.39,14.8q63.07,166,126.15,332c4.06,10.68,8.9,21.06,12.94,31.74C1177,678.59,1180,688.39,1183.45,698.6Z"/><path class="cls-1" d="M1485.52,698.42h-21c-.09-1.58-.24-3-.24-4.38,0-32,0-63.94-.08-95.91,0-3.07.89-4.71,3.74-5.9,5.7-2.37,11.24-5.11,17.63-8.06Z"/><path class="cls-2" d="M664.6,84.48,924.11,341.41s4.39,8.78-3,15.9c-7,8.07-17.27,4-17.27,4L655.29,116.51,409.72,362.32l-15.9-25.68L647.91,84.48S655.18,77.78,664.6,84.48Z"/><path class="cls-2" d="M1794.48,239.79l-30.6,60.58,33.32,65.72s-8.33,6.21-40.13,9.24c0,0-68.83,6.44-104.5,0s-50-17.34-70.88-63l-29.68,73,41.65,78.45s-77.85,89.81-471.31,219.29c60.28-6.51,93.9-11.66,93.9-11.66s96.17-7,243.53-74.66,159-109.8,159-109.8,23.32-29-1.44-60.12c60.2,7.26,128.35,3.48,128.35,3.48s75.19-10.07,81.56-96.17C1832.49,283.25,1794.48,239.79,1794.48,239.79Z"/><polygon class="cls-2" points="1777.74 472.26 1832.72 514.74 1806.59 557.68 1759.8 522.69 1739.58 554.72 1684.15 512.47 1710.95 470.21 1757.3 507.24 1777.74 472.26"/><polygon class="cls-2" points="1763.58 556.46 1814.32 595.24 1791.75 635.07 1740.26 594.78 1763.58 556.46"/></svg>